<svg xmlns:dc="http://purl.org/dc/elements/1.1/"
                                        xmlns:cc="http://creativecommons.org/ns#"
                                        xmlns:rdf="http://www.w3.org/1999/02/22-rdf-syntax-ns#"
                                        xmlns:svg="http://www.w3.org/2000/svg" xmlns="http://www.w3.org/2000/svg"
                                        xmlns:xlink="http://www.w3.org/1999/xlink"
                                        xmlns:sodipodi="http://sodipodi.sourceforge.net/DTD/sodipodi-0.dtd"
                                        xmlns:inkscape="http://www.inkscape.org/namespaces/inkscape"
                                        viewBox="0 0 1236 716" version="1.1" id="svg19"
                                        sodipodi:docname="wildfirefuelsalb2.svg"
                                        inkscape:version="1.0.2-2 (e86c870879, 2021-01-15)">
                                        <metadata id="metadata25">
                                            <rdf:RDF>
                                                <cc:Work rdf:about="">
                                                    <dc:format>image/svg+xml</dc:format>
                                                    <dc:type rdf:resource="http://purl.org/dc/dcmitype/StillImage" />
                                                </cc:Work>
                                            </rdf:RDF>
                                        </metadata>
                                        <defs id="defs23" />
                                        <sodipodi:namedview pagecolor="#ffffff" bordercolor="#666666" borderopacity="1"
                                            objecttolerance="10" gridtolerance="10" guidetolerance="10"
                                            inkscape:pageopacity="0" inkscape:pageshadow="2"
                                            inkscape:window-width="1920" inkscape:window-height="1009" id="namedview21"
                                            showgrid="false" inkscape:zoom="0.84889697" inkscape:cx="618"
                                            inkscape:cy="358" inkscape:window-x="-8" inkscape:window-y="-8"
                                            inkscape:window-maximized="1" inkscape:current-layer="g13" />
                                        <!-- svg generated using QGIS www.qgis.org -->
                                        <g id="wfm2" inkscape:groupmode="layer" inkscape:label="wfm2">
                                            <g id="g13">
                                                <g id="wfm2_1" inkscape:label="Napa" style="fill:#a05a2c">
                                                    <a xlink:href="county_idx.html?id=Napa" id="a6"
                                                        style="fill:#a05a2c; text-decoration: none;">
                                                        <path
                                                            d="m 724,265 1,-3 v -1 l 2,-2 2,-3 -1,-1 1,-1 1,-1 2,-2 1,-1 v -3 l 4,-3 -2,-3 -2,-1 v -8 l 4,-6 1,-3 2,-2 1,-12 -3,-3 24,-7 73,-19 14,-4 26,-40 8,-13 9,-4 -4,-3 -1,-8 h -1 l 10,-16 12,2 5,-12 -6,-15 -14,-19 v -1 l 6,-7 1,2 1,2 2,3 1,1 2,2 v 1 l 3,3 h 2 l 2,2 1,1 1,1 3,1 3,2 5,3 3,2 h 1 l 3,-5 1,-1 h 3 l 2,-1 2,1 h 2 l 2,-3 h 2 l 2,2 2,3 1,1 6,-1 2,-1 h 1 v 2 l 4,1 h 4 l 2,-1 v 2 l 1,4 2,4 1,3 2,3 1,3 v 1 l 1,4 v 3 l 3,4 v 2 l 2,1 1,4 2,3 v 2 l 2,1 v 3 l 1,1 v 1 l 1,2 1,6 1,2 v 2 2 l 1,8 h 1 l -1,3 2,2 v 3 h 2 l 1,3 1,2 1,1 3,2 v 1 l 1,1 v 1 l 1,2 1,2 v 1 l 1,1 1,2 1,1 -1,1 2,3 -1,1 h -2 l 2,10 2,4 -1,4 1,3 2,1 2,1 2,1 1,-1 v -1 l 1,1 1,-1 1,2 2,2 2,2 -1,2 2,3 -1,2 -1,2 -1,1 3,3 1,4 3,3 1,2 3,3 3,3 v -1 h 3 l 2,-1 2,2 3,1 1,3 1,3 1,2 v 2 l -1,1 -1,1 v 1 l 1,2 2,2 -1,3 -2,1 h -1 l -1,1 h -1 v 2 2 l 1,1 v 4 l 1,2 3,-2 h 1 l 2,-2 2,-1 1,-1 1,-1 1,1 -1,2 1,1 2,2 1,3 1,3 1,2 h 2 v 1 l 2,3 v 2 l 2,5 -1,2 2,3 1,1 1,3 v 3 3 1 2 l 1,1 3,11 1,2 v 4 l 1,4 1,4 1,5 1,2 -1,3 v 1 l 1,1 1,2 -1,1 1,2 v 2 l 2,1 v 2 l 3,4 1,3 v 1 l -2,3 -1,12 1,1 v 2 l -2,4 -2,8 -1,1 -1,1 -5,18 -2,5 -2,10 -1,1 v 5 l 1,5 h 1 l 3,5 1,3 h 2 v 2 l 2,2 1,2 v 2 l 2,2 5,8 1,1 3,4 2,2 1,1 2,4 v 1 l 5,13 h 1 l 2,3 v 2 l 2,6 v 4 2 1 l 1,3 2,6 2,-1 1,4 v 2 l -1,2 h -1 l -1,1 -1,2 -1,2 2,2 v 1 l -47,-1 -19,-1 h -12 -8 -4 -6 v 1 l 2,3 1,2 v 2 l -1,2 3,2 v 1 l -2,3 -1,3 1,1 v 2 l 2,4 1,1 v 2 l 2,1 2,3 v 1 l 1,4 h -5 l -1,-1 h -2 l -4,1 -1,-1 h -2 -1 l -3,5 v 4 l 2,2 4,1 h 1 l 2,-1 4,1 3,2 -1,2 v 1 l -1,2 h -3 v 1 h -3 l -1,-1 -2,-1 -1,-1 -1,3 1,1 v 3 h 1 2 l 1,3 2,1 3,6 v 1 1 l 1,5 1,1 v 2 l -2,2 v 3 h 1 v 2 1 h -2 l -1,1 -2,-1 -3,3 1,3 -1,1 1,5 h -1 v 2 l -4,3 1,2 -4,1 2,4 -1,3 -1,1 3,3 v 1 l 2,2 h 2 l 1,1 v 2 l 1,1 h 2 1 l 2,3 -1,2 -2,3 1,2 1,1 h -1 -11 -1 -4 -12 -2 l -7,-1 h -1 v 1 l -4,-1 h -1 -1 -2 -3 -14 -1 -1 -1 l -58,-2 h -16 l -2,-1 -1,-1 1,-1 2,-2 h 2 3 8 l 2,1 4,1 1,1 h 2 l 2,-1 1,-1 1,-5 -1,-3 -1,-3 -1,-2 1,-6 2,-1 h 2 l 2,2 1,-1 1,-1 v -4 -2 -2 l -2,-2 v -2 h 2 l 2,1 1,1 2,2 v -1 -2 -3 -1 l -1,-1 -1,-3 -2,-1 -1,-2 -1,-1 1,-1 v -3 -3 l -1,-10 -4,-15 h -3 v 2 h -2 v -2 l -2,-1 v -1 l -1,-1 -1,-2 -2,-1 h -1 l -1,-2 -1,-2 -1,-2 v -3 -3 l 1,-2 v -1 l 1,-2 -1,-1 h -1 l -3,1 v 1 h -2 l -2,-2 -2,-5 -1,-1 2,-3 v -2 -1 l 1,-1 -1,-4 v -1 -2 l -1,-1 1,-2 v -1 l 1,-1 h 2 l 2,-1 -1,-4 -1,-2 -2,-2 -2,-5 -1,-2 h -1 l -1,1 v -5 l -2,-1 -1,-3 v -1 l 1,-2 -1,-2 -3,-1 1,-1 h -1 l -1,1 -1,-1 -2,-5 -2,-1 v -3 h -1 v -2 l -3,-2 -2,-1 -1,-2 -1,-1 -2,-1 -1,1 -2,-1 -2,-1 -2,-2 -1,-3 -2,-1 v -3 l 3,-3 h 2 l 2,-4 -4,-3 v -1 l -4,-4 -4,-2 -3,-6 2,-2 -2,-3 v -2 h -1 l -2,-1 v -2 l -13,-13 h -2 v -1 l 3,-4 v -2 l 2,-3 2,3 2,-5 1,-1 v -2 l 3,-2 v -5 l -2,-3 h -2 l -2,-2 h -2 l -1,-2 -3,1 h -3 l -1,-1 -3,-1 h -1 l 1,-1 -1,-2 v -1 l 1,-2 h 2 l -2,-2 h -2 l -3,-3 h -1 l -2,-1 -2,1 h -1 -3 v -3 l -1,-2 v -2 l -2,-2 -1,-2 -2,-2 v -1 l -1,-2 -1,-3 -2,-3 1,-2 1,-1 2,1 2,-3 -2,-1 -1,-2 -2,-1 v -1 h -1 l -1,-3 -1,-1 1,-1 h 3 v -3 h -2 l 1,-2 v -1 l -2,-1 v -1 h -2 l -2,-3 h -3 l -3,-1 -1,1 h -2 v -3 l -2,-1 v -3 l -3,-5 v -1 l -2,-2 -1,-4 -2,-2 h -2 l -1,-2 -2,-1 -4,-3 h -3 l -2,-2 v -1 l -3,-1 -2,1 h -3 l -4,-1 v -3 l 1,-2 -2,-2 -1,-1 -1,-1 h -2 l -2,1 v -3 -3 l 1,-3 -2,-1 -1,-2 v -3 l -3,-4 -1,-3 -1,-1 -1,-2 -1,-1"
                                                            id="path2" style="fill:#997C5C" />
                                                        <text font-family="Times, serif" font-size="50px" x="900"
                                                            y="375" fill="#ffffff" text-decoration="none"
                                                            id="text8">Napa</text>
                                                    </a>
                                                </g>
                                                <g id="wfm2_2" inkscape:label="Sonoma" style="fill:#a05a2c">
                                                    <a xlink:href="county_idx.html?id=Sonoma" id="a10"
                                                        style="display:inline;fill:#aa4400; text-decoration: none;">
                                                        <path
                                                            d="m 131,99 3,4 2,1 3,4 1,-1 1,-3 1,-4 h 1 l 3,1 1,-1 v -2 l 2,-3 h 1 2 2 v -3 -1 h 1 l 76,4 h 6 l 5,1 1,-26 58,2 7,-1 h 2 l 20,1 h 20 l 45,2 4,-1 1,-26 7,1 h 5 l 25,1 v -7 l 1,-5 12,1 h 21 1 1 l 6,1 8,1 h 6 11 l 23,2 h 4 l 71,2 4,1 h 6 l 1,1 2,-1 v 3 l -1,2 2,1 h 2 l 1,2 -1,2 2,1 v 1 h 3 l 3,-1 1,-2 2,1 v 3 l 1,1 2,3 h 1 l 2,3 h 2 l 2,1 4,4 h 1 l 1,1 1,1 1,3 1,1 -1,1 2,1 3,2 1,2 3,2 4,2 v 1 l 1,3 v 4 l -1,2 v 2 2 l 1,1 2,2 1,2 h 2 l 2,4 -1,1 1,2 1,2 1,1 h 2 l 1,2 v 2 l 3,3 v 2 2 l -1,1 h 2 l 1,3 2,1 v 1 h 2 l 1,1 h 1 l 1,1 v 2 l -1,2 -1,2 1,2 -1,2 1,2 -1,1 1,2 h 2 l 2,1 2,2 v 2 l 2,1 v 3 l 1,1 -1,2 2,3 -1,1 2,1 1,1 3,1 2,1 1,1 h 2 2 l 2,2 h 1 l 2,-2 2,1 h 1 l 2,1 h 1 2 l 2,-1 4,1 h 1 l 1,3 1,4 2,1 v 2 l 2,1 -1,1 v 3 l 2,3 1,1 1,2 1,2 1,1 2,3 1,1 -1,2 v 1 l -1,3 3,3 -1,12 -2,2 -1,3 -4,6 v 8 l 2,1 2,3 -4,3 v 3 l -1,1 -2,2 -1,1 -1,1 1,1 -2,3 -2,2 v 1 l -1,3 1,1 1,2 1,1 1,3 3,4 v 3 l 1,2 2,1 -1,3 v 3 3 l 2,-1 h 2 l 1,1 1,1 2,2 -1,2 v 3 l 4,1 h 3 l 2,-1 3,1 v 1 l 2,2 h 3 l 4,3 2,1 1,2 h 2 l 2,2 1,4 2,2 v 1 l 3,5 v 3 l 2,1 v 3 h 2 l 1,-1 3,1 h 3 l 2,3 h 2 v 1 l 2,1 v 1 l -1,2 h 2 v 3 h -3 l -1,1 1,1 1,3 h 1 v 1 l 2,1 1,2 2,1 -2,3 -2,-1 -1,1 -1,2 2,3 1,3 1,2 v 1 l 2,2 1,2 2,2 v 2 l 1,2 v 3 h 3 1 l 2,-1 2,1 h 1 l 3,3 h 2 l 2,2 h -2 l -1,2 v 1 l 1,2 -1,1 h 1 l 3,1 1,1 h 3 l 3,-1 1,2 h 2 l 2,2 h 2 l 2,3 v 5 l -3,2 v 2 l -1,1 -2,5 -2,-3 -2,3 v 2 l -3,4 v 1 h 2 l 13,13 v 2 l 2,1 h 1 v 2 l 2,3 -2,2 3,6 4,2 4,4 v 1 l 4,3 -2,4 h -2 l -3,3 v 3 l 2,1 1,3 2,2 2,1 2,1 1,-1 2,1 1,1 1,2 2,1 3,2 v 2 h 1 v 3 l 2,1 2,5 1,1 1,-1 h 1 l -1,1 3,1 1,2 -1,2 v 1 l 1,3 2,1 v 5 l 1,-1 h 1 l 1,2 2,5 2,2 1,2 1,4 -2,1 h -2 l -1,1 v 1 l -1,2 1,1 v 2 1 l 1,4 -1,1 v 1 2 l -2,3 1,1 2,5 2,2 h 2 v -1 l 3,-1 h 1 l 1,1 -1,2 v 1 l -1,2 v 3 3 l 1,2 1,2 1,2 h 1 l 2,1 1,2 1,1 v 1 l 2,1 v 2 h 2 v -2 h 3 l 4,15 1,10 v 3 3 l -1,1 1,1 1,2 2,1 1,3 1,1 v 1 3 2 1 l -2,-2 -1,-1 -2,-1 h -2 v 2 l 2,2 v 2 2 4 l -1,1 -1,1 -2,-2 h -2 l -2,1 -1,6 1,2 1,3 1,3 -1,5 -1,1 -2,1 h -2 l -1,-1 -4,-1 -2,-1 h -8 -3 -2 l -2,2 -1,1 1,1 5,12 -1,3 -14,8 -13,10 h -2 -3 l -3,1 v -1 l -4,-1 -18,3 -5,2 v 1 h -2 l -4,-1 h -1 l -1,-2 -2,-2 -2,-2 -2,-6 v -2 l -1,-4 -2,-4 -2,-3 -3,-3 -4,-3 -2,-1 -3,-3 -3,-4 -1,-2 -1,-1 -2,1 h -1 l -4,-1 -1,-1 -1,-2 v -1 l 2,-2 1,-1 2,-2 -1,-1 -2,1 h -2 -3 l -1,-1 v -3 -1 l -2,-2 1,-2 1,-2 -2,-2 -2,-3 h -1 v 1 l 1,1 v 1 l -2,1 -3,-1 -1,-1 -1,-1 -1,-2 -1,1 v -1 h -2 v 1 l -3,1 v -2 l -1,-1 -1,1 -2,1 -2,1 -1,2 -1,2 h -2 -3 -1 l -2,-1 h -3 -1 l -1,-1 h -2 l -2,3 -4,1 -2,-1 -1,-1 -4,-1 h -2 -1 l -2,-2 -5,-3 h -3 v -1 l -2,-2 h -4 l -2,1 -1,-1 h -2 l -2,-2 -3,-2 -1,-1 -1,1 -2,-1 h -1 l -2,-1 h -2 l -2,-2 h -1 l -6,-3 v -1 l -2,-2 -3,-1 -1,-1 h -11 l -6,-5 -25,-24 -9,-8 -2,-1 -6,-6 -11,-10 -8,-8 -8,-7 -14,-12 -16,-15 -1,-2 h -1 l -4,2 h -1 l -1,-2 v -1 l 2,-1 1,-1 -1,-1 h -2 l -1,1 h -3 l -1,2 -2,1 1,1 2,2 -1,2 -3,2 -1,-1 v -2 l -1,-1 h -2 l -3,1 -2,1 h -1 v -1 l 2,-1 v -1 h -1 l -1,1 -2,1 -2,-1 -3,1 -2,-1 -1,-1 h -2 l -1,-1 -3,-2 -4,-1 v 1 l -1,2 -1,3 h -1 l -3,-1 h -1 -3 l -1,1 -1,2 h -2 l -3,2 -1,-1 h -1 v 2 3 1 l -3,1 -2,1 -1,1 -1,-1 -13,-12 -10,-3 h -4 l -4,2 -2,4 v 2 l 1,1 -1,3 -4,1 -3,-4 -7,-14 -2,-2 -1,-3 3,1 4,-10 h 1 v -3 -16 -3 l -4,-8 -2,-4 v -1 l -2,-2 v -2 l -1,-4 -1,-6 -6,-3 -1,1 h -1 l 1,-5 -2,-6 -2,-7 -1,-1 -4,-5 -2,-1 -2,-2 -1,-4 -3,-1 v -7 l -1,-3 h -3 l 1,-2 v -1 l -1,-4 v -1 l -5,-4 h -1 l -4,-1 -1,-3 -7,-5 -1,-2 -3,-1 -3,-6 -13,-10 -8,-5 -2,-3 -5,-1 -4,-3 h -3 l -3,-1 -5,-2 -2,-4 -1,-2 -4,-1 -2,-2 -4,2 -2,-2 v -3 l -3,-1 -5,-6 -1,-1 -1,-1 1,-2 v -2 l -4,-2 -3,1 v -4 h -3 l -2,-4 -3,-1 -4,-2 -1,-1 -2,-2 -3,-2 v -3 l -3,-3 -4,-3 -4,-2 -1,-2 -4,-3 -1,1 -5,-6 v -5 l 1,-4 -3,-6 -4,-6 -3,-2 -2,2 -2,-2 -1,-2 -4,-2 -3,-4 h 3 l 1,-3 -1,-2 -4,-2 -3,-6 -8,-8 2,-1 -1,-3 -3,-1 1,-2 -5,-7 -1,-2 -3,-4 -1,-1 2,-1 -2,-3 v -2 l -5,-5 1,-2 -3,-4 -3,-1 -7,-6 2,-1 v -3 l -2,-3 -2,-5 -1,-2 -1,-1 -2,-1 -1,-1 -1,-1 -4,-4 v -2 -1 l -1,-1 -3,-5 -4,-2 -1,-1 h -2 l -2,-1 -3,-3 -2,-2 -2,-1 -3,-3 v -1 l -2,-3 -4,-2 -6,-3 -2,1 -3,-2 -1,-2 -2,-3 -1,-1 h -2 l -2,-3 2,-1 -2,-3 -2,-2 v -4 l -1,-4"
                                                            id="path7" style="fill:#C17236" />
                                                        <text font-family="Times, serif" font-size="50px" x="475"
                                                            y="350" fill="#ffffff" text-decoration="none"
                                                            id="text14">Sonoma</text>
                                                    </a>
                                                </g>
                                            </g>
                                        </g>
                                        <!-- QGIS extent for clipping, eg in Inkscape
                                        <g id="qgisviewbox"><path d="m 0,714 h 1234 v 0 h 0 v 714" id="path16"/></g> -->
                                    </svg>